<svg class="w-[549px] h-[832px] absolute right-0 top-0 sm:opacity-100 opacity-60" viewBox="0 0 549 832" fill="none" xmlns="http://www.w3.org/2000/svg"><path d="M121.189 0V96.9362C121.189 104.257 127.127 110.192 134.452 110.192H228.116C235.441 110.192 241.379 116.127 241.379 123.449V217.071C241.379 224.392 247.316 230.327 254.641 230.327H348.306C355.63 230.327 361.568 236.262 361.568 243.583V337.205C361.568 344.527 367.506 350.462 374.83 350.462H468.495C475.82 350.462 481.757 356.397 481.757 363.718V457.34C481.757 464.661 487.695 470.596 495.02 470.596H592M1 0V96.9362C1 104.257 6.93772 110.192 14.2623 110.192H107.927C115.252 110.192 121.189 116.127 121.189 123.449V217.071C121.189 224.392 127.127 230.327 134.452 230.327H228.116C235.441 230.327 241.379 236.262 241.379 243.583V337.205C241.379 344.527 235.441 350.462 228.116 350.462H134.452C127.127 350.462 121.189 344.527 121.189 337.205V241.926L121.073 241.143C120.183 235.139 115.085 230.656 109.013 230.539L97.9804 230.327H14.2623C6.93772 230.327 1 236.262 1 243.583V337.205C1 344.527 6.93772 350.462 14.2623 350.462H108.756L111.904 350.671C117.129 351.02 121.189 355.357 121.189 360.592V370.76M121.189 360.404V457.34C121.189 464.661 127.127 470.596 134.452 470.596H228.116C235.441 470.596 241.379 476.531 241.379 483.852V577.475C241.379 584.796 247.316 590.731 254.641 590.731H348.306C355.63 590.731 361.568 596.666 361.568 603.987V697.609C361.568 704.93 367.506 710.865 374.83 710.865H468.495C475.82 710.865 481.757 716.8 481.757 724.122V817.744C481.757 825.065 487.695 831 495.02 831H592" stroke="url(#paint0_linear_112_2359)" stroke-opacity="0.8" stroke-width="0.431035" pathLength="1" stroke-dashoffset="0px" stroke-dasharray="1px 1px"></path><defs><linearGradient id="paint0_linear_112_2359" x1="1" y1="0" x2="578.419" y2="714.851" gradientUnits="userSpaceOnUse"><stop offset="0.0819437" stop-color="#F7F7F7"></stop><stop offset="0.208333" stop-color="#00C16A"></stop><stop offset="0.526042" stop-color="#00C16A"></stop><stop offset="0.9375" stop-color="#00C16A"></stop></linearGradient></defs></svg>