<svg xmlns="http://www.w3.org/2000/svg" version="1.1" xmlns:xlink="http://www.w3.org/1999/xlink" xmlns:svgjs="http://svgjs.dev/svgjs" viewBox="0 0 800 800" opacity="1"><defs><filter id="bbburst-blur-1" x="-100%" y="-100%" width="400%" height="400%"><feGaussianBlur in="SourceGraphic" stdDeviation="1"></feGaussianBlur></filter><filter id="bbburst-blur-2" x="-100%" y="-100%" width="400%" height="400%"><feGaussianBlur in="SourceGraphic" stdDeviation="2"></feGaussianBlur></filter><filter id="bbburst-blur-3" x="-100%" y="-100%" width="400%" height="400%"><feGaussianBlur in="SourceGraphic" stdDeviation="4"></feGaussianBlur></filter><filter id="bbburst-blur-4" x="-100%" y="-100%" width="400%" height="400%"><feGaussianBlur in="SourceGraphic" stdDeviation="12"></feGaussianBlur></filter><symbol id="bbburst-shape-5" viewBox="0 0 145 145"><circle cx="72.5" cy="72.5" r="72.5"></circle></symbol><symbol id="bbburst-shape-10" viewBox="0 0 145 145"><circle cx="72.5" cy="72.5" r="61.5" fill="none" stroke-width="22"></circle></symbol><symbol id="bbburst-shape-11" viewBox="0 0 194 167"><path d="M10.398 161 97 11l86.603 150H10.397Z" stroke-width="11"></path></symbol><symbol id="bbburst-shape-13" viewBox="0 0 159 159"><path stroke-width="22" d="M11 11h137v137H11z"></path></symbol></defs><use xlink:href="#bbburst-shape-10" width="8.012084046956714" opacity="0.9107859329345651" transform="matrix(0.9891243709325553,-0.14708153802322285,0.14708153802322285,0.9891243709325553,297.6395738323247,-1.8658097571014878)" fill="none" stroke="#d62518"></use><use xlink:href="#bbburst-shape-13" width="18.795904853658236" opacity="0.7237062402254362" transform="matrix(0.7902696291842984,0.612759262018055,-0.612759262018055,0.7902696291842984,748.9344093752197,133.63334043426642)" fill="none" stroke="#2c2891" filter="url(#bbburst-blur-1)"></use><use xlink:href="#bbburst-shape-10" width="10.614072721659285" opacity="0.6434346254842629" transform="matrix(0.8623741233118131,-0.506271539237771,0.506271539237771,0.8623741233118131,247.91439567543623,-92.99656692512099)" fill="none" stroke="#2c2891" filter="url(#bbburst-blur-1)"></use><use xlink:href="#bbburst-shape-10" width="8.399164059460414" opacity="0.8826988377301458" transform="matrix(0.8832232895065565,-0.46895268511142724,0.46895268511142724,0.8832232895065565,259.9365424721728,61.41304070366925)" fill="none" stroke="#2c2891"></use><use xlink:href="#bbburst-shape-10" width="34.075338687920635" opacity="0.17483059927441702" transform="matrix(1.1880485864448824,0.3886393652813838,-0.3886393652813838,1.1880485864448824,899.8781171028622,-151.86514463788194)" fill="none" stroke="#2c2891" filter="url(#bbburst-blur-3)"></use><use xlink:href="#bbburst-shape-13" width="11.248305481622586" opacity="0.7066219078500182" transform="matrix(0.9543130528547715,0.29880862964614324,-0.29880862964614324,0.9543130528547715,507.27217183446305,-115.2463027132705)" fill="none" stroke="#00b161" filter="url(#bbburst-blur-1)"></use><use xlink:href="#bbburst-shape-5" width="10.086943882094507" opacity="0.7539977392229877" transform="matrix(0.7157420576259301,-0.6983647377591452,0.6983647377591452,0.7157420576259301,209.43826472119997,56.2493678284099)" fill="#d62518" filter="url(#bbburst-blur-1)"></use><use xlink:href="#bbburst-shape-5" width="24.567765802073986" opacity="0.5107041734093944" transform="matrix(0.8706001648466469,-0.49199121228838144,0.49199121228838144,0.8706001648466469,406.3076795205903,110.44185376675887)" fill="#2c2891" filter="url(#bbburst-blur-2)"></use><use xlink:href="#bbburst-shape-13" width="7.450415691106837" opacity="0.957433910917391" transform="matrix(0.9999360264104922,0.01131119296960204,-0.01131119296960204,0.9999360264104922,418.10308291390146,-8.23179382845484)" fill="none" stroke="#d62518"></use><use xlink:href="#bbburst-shape-13" width="11.08988856640168" opacity="0.8316551000432844" transform="matrix(0.8268985480048924,0.5623511281285036,-0.5623511281285036,0.8268985480048924,553.1978362073178,31.069259571559144)" fill="none" stroke="#2c2891"></use><use xlink:href="#bbburst-shape-10" width="6.823047774129353" opacity="0.919424722097295" transform="matrix(0.7253222625598014,0.6884094823832183,-0.6884094823832183,0.7253222625598014,651.2598670702487,136.62363425946933)" fill="none" stroke="#2c2891"></use><use xlink:href="#bbburst-shape-11" width="28.645310575144318" opacity="0.17392536114528234" transform="matrix(0.8991298125960303,-0.8683694951465231,0.8683694951465231,0.8991298125960303,-3.1381906364449037,-316.8319884339898)" fill="none" stroke="#00b161" filter="url(#bbburst-blur-3)"></use><use xlink:href="#bbburst-shape-13" width="7.927407372811787" opacity="0.8920250688263611" transform="matrix(0.8507376300253269,-0.5255906057559344,0.5255906057559344,0.8507376300253269,211.59539176707585,20.24744984995982)" fill="none" stroke="#2c2891"></use><use xlink:href="#bbburst-shape-5" width="36.52520995185938" opacity="0.016595079484036823" transform="matrix(1.5549995990214824,-0.8027927796405678,0.8027927796405678,1.5549995990214824,410.77278978671785,-464.2962366548725)" fill="#2c2891" filter="url(#bbburst-blur-4)"></use><use xlink:href="#bbburst-shape-10" width="29.769620962482684" opacity="0.40603082645480515" transform="matrix(0.9955810074421753,0.09390664311124822,-0.09390664311124822,0.9955810074421753,455.7085805929616,265.61533645655)" fill="none" stroke="#00b161" filter="url(#bbburst-blur-2)"></use><use xlink:href="#bbburst-shape-11" width="15.558355439574438" opacity="0.6859347813986019" transform="matrix(0.9993966978735582,0.034730970032922574,-0.034730970032922574,0.9993966978735582,276.018210595314,54.963607545981176)" fill="none" stroke="#d62518" filter="url(#bbburst-blur-1)"></use><use xlink:href="#bbburst-shape-11" width="12.256930967694831" opacity="0.7576705309360499" transform="matrix(0.9986422881547629,0.05209203690603296,-0.05209203690603296,0.9986422881547629,371.09779015552806,-99.8748724104118)" fill="none" stroke="#2c2891" filter="url(#bbburst-blur-1)"></use><use xlink:href="#bbburst-shape-10" width="9.143966587946437" opacity="0.8356365621448985" transform="matrix(0.9629642390211939,0.269629142279415,-0.269629142279415,0.9629642390211939,506.7908009313609,-60.30645018013843)" fill="none" stroke="#2c2891"></use><use xlink:href="#bbburst-shape-10" width="8.355143355874091" opacity="0.8233530932841918" transform="matrix(0.9547377238312805,0.2974489514075743,-0.2974489514075743,0.9547377238312805,539.8793750055379,-58.63213935124287)" fill="none" stroke="#2c2891"></use><use xlink:href="#bbburst-shape-10" width="16.628844763708493" opacity="0.6709125897139783" transform="matrix(0.970547604451805,0.24090941760932208,-0.24090941760932208,0.970547604451805,634.1829598193377,-15.656964747287702)" fill="none" stroke="#00b161" filter="url(#bbburst-blur-1)"></use><use xlink:href="#bbburst-shape-13" width="17.3948737931728" opacity="0.7564067646200119" transform="matrix(0.9712007366015315,0.23826273150587932,-0.23826273150587932,0.9712007366015315,533.215246657594,108.77966823507671)" fill="none" stroke="#2c2891" filter="url(#bbburst-blur-1)"></use><use xlink:href="#bbburst-shape-5" width="28.308197611077183" opacity="0.11670909912168204" transform="matrix(1.1557994032765713,0.4760543449917479,-0.4760543449917479,1.1557994032765713,848.0503672888343,-357.0191371874938)" fill="#00b161" filter="url(#bbburst-blur-3)"></use><use xlink:href="#bbburst-shape-13" width="13.961813630422231" opacity="0.7288728104669011" transform="matrix(0.8054537713408894,0.592658605128398,-0.592658605128398,0.8054537713408894,531.766031918119,144.04266756656085)" fill="none" stroke="#d62518" filter="url(#bbburst-blur-1)"></use><use xlink:href="#bbburst-shape-10" width="30.060635573264804" opacity="0.4292518128122952" transform="matrix(0.9112656511268423,0.41181902952191524,-0.41181902952191524,0.9112656511268423,355.35151938302505,-137.05292237224552)" fill="none" stroke="#d62518" filter="url(#bbburst-blur-2)"></use><use xlink:href="#bbburst-shape-10" width="11.175364839715556" opacity="0.8183071810458509" transform="matrix(0.9930853896553632,-0.11739424540008578,0.11739424540008578,0.9930853896553632,411.79105383890953,-47.083416997531856)" fill="none" stroke="#00b161"></use><use xlink:href="#bbburst-shape-5" width="10.57859283976914" opacity="0.8727976974657963" transform="matrix(0.8247608181228111,0.5654817352394252,-0.5654817352394252,0.8247608181228111,598.2403203340416,119.25876598226267)" fill="#2c2891"></use><use xlink:href="#bbburst-shape-10" width="10.265466371008415" opacity="0.8625019574199311" transform="matrix(0.8300366611911172,0.5577088318098454,-0.5577088318098454,0.8300366611911172,679.872986410661,55.05669655374021)" fill="none" stroke="#2c2891"></use><use xlink:href="#bbburst-shape-13" width="19.280862028232207" opacity="0.554946415615647" transform="matrix(0.8193069233770014,0.5733551825060207,-0.5733551825060207,0.8193069233770014,736.5761623981904,230.62237127048843)" fill="none" stroke="#2c2891" filter="url(#bbburst-blur-2)"></use><use xlink:href="#bbburst-shape-10" width="16.16327564327509" opacity="0.6367080212511125" transform="matrix(0.9726221779860764,0.2323921231230118,-0.2323921231230118,0.9726221779860764,341.8449004006344,-69.69979893066551)" fill="none" stroke="#2c2891" filter="url(#bbburst-blur-1)"></use><use xlink:href="#bbburst-shape-5" width="15.650529581893444" opacity="0.6348019968212903" transform="matrix(0.9999999748279886,-0.00022437473563897677,0.00022437473563897677,0.9999999748279886,372.77015715758324,-163.19834780382354)" fill="#2c2891" filter="url(#bbburst-blur-1)"></use><use xlink:href="#bbburst-shape-13" width="28.42409965252254" opacity="0.1544118609648404" transform="matrix(0.9538513725489323,-0.8078784308833341,0.8078784308833341,0.9538513725489323,-310.2659821089517,-42.484836504990824)" fill="none" stroke="#d62518" filter="url(#bbburst-blur-3)"></use><use xlink:href="#bbburst-shape-11" width="25.7439040827503" opacity="0.38953949372536445" transform="matrix(0.9257419546380052,0.3781558321948842,-0.3781558321948842,0.9257419546380052,770.93705503723,-123.41691289453414)" fill="none" stroke="#2c2891" filter="url(#bbburst-blur-2)"></use><use xlink:href="#bbburst-shape-13" width="8.371499675390034" opacity="0.9588898457862571" transform="matrix(0.9353469516396281,0.3537316497833564,-0.3537316497833564,0.9353469516396281,529.4318609108511,40.990286685139495)" fill="none" stroke="#2c2891"></use><use xlink:href="#bbburst-shape-5" width="10.78419387425554" opacity="0.8494986337249798" transform="matrix(0.8238300853074141,0.5668368288514595,-0.5668368288514595,0.8238300853074141,616.9787716429407,134.92835694703268)" fill="#d62518"></use><use xlink:href="#bbburst-shape-5" width="28.24908188958201" opacity="0.26854079720730817" transform="matrix(1.086211148191388,0.6185833343574223,-0.6185833343574223,1.086211148191388,317.61735868666096,53.991325933020164)" fill="#2c2891" filter="url(#bbburst-blur-3)"></use><use xlink:href="#bbburst-shape-13" width="26.2313581669353" opacity="0.47327436867549155" transform="matrix(0.823910536691582,0.5667198845360812,-0.5667198845360812,0.823910536691582,426.1653846829514,205.09178467429535)" fill="none" stroke="#2c2891" filter="url(#bbburst-blur-2)"></use><use xlink:href="#bbburst-shape-13" width="25.514035760685648" opacity="0.4045905281973132" transform="matrix(0.9971216422786692,-0.07581840475431942,0.07581840475431942,0.9971216422786692,93.40806201558435,-46.184373747982306)" fill="none" stroke="#2c2891" filter="url(#bbburst-blur-2)"></use><use xlink:href="#bbburst-shape-5" width="15.703797086219598" opacity="0.6744191716620144" transform="matrix(0.8138238051459402,-0.5811117054214127,0.5811117054214127,0.8138238051459402,73.61308619743426,196.50756214201135)" fill="#d62518" filter="url(#bbburst-blur-1)"></use><use xlink:href="#bbburst-shape-5" width="11.864491266783011" opacity="0.8140203047698161" transform="matrix(0.9891207885041091,-0.14710562786314269,0.14710562786314269,0.9891207885041091,418.89504963836544,1.4345772087880277)" fill="#2c2891"></use><use xlink:href="#bbburst-shape-5" width="18.163922544441036" opacity="0.7037919949715314" transform="matrix(0.9382535475864479,-0.34594837828994834,0.34594837828994834,0.9382535475864479,125.72095329645359,-11.426518966091407)" fill="#00b161" filter="url(#bbburst-blur-1)"></use><use xlink:href="#bbburst-shape-5" width="22.065109475202853" opacity="0.5339665061427086" transform="matrix(0.7320984149479328,-0.6811988775906229,0.6811988775906229,0.7320984149479328,282.45731231557806,-17.259294394467474)" fill="#2c2891" filter="url(#bbburst-blur-2)"></use><use xlink:href="#bbburst-shape-5" width="44.41702301294312" opacity="-0.09013465912793839" transform="matrix(1.4857006786441609,-0.9247667238154064,0.9247667238154064,1.4857006786441609,338.3381565483294,178.6846243431453)" fill="#2c2891" filter="url(#bbburst-blur-4)"></use><use xlink:href="#bbburst-shape-13" width="10.298719528296271" opacity="0.8012177609936202" transform="matrix(0.7123961704303065,-0.7017775262547482,0.7017775262547482,0.7123961704303065,64.7611541032307,45.06870142950487)" fill="none" stroke="#2c2891"></use><use xlink:href="#bbburst-shape-11" width="27.379103986934116" opacity="0.34021824694184766" transform="matrix(0.7788045163795816,-0.6272667098346333,0.6272667098346333,0.7788045163795816,-121.5169272451852,240.6386896431161)" fill="none" stroke="#2c2891" filter="url(#bbburst-blur-2)"></use><use xlink:href="#bbburst-shape-10" width="20.579617874745004" opacity="0.378919520138004" transform="matrix(0.9453900096353215,-0.325941297907655,0.325941297907655,0.9453900096353215,156.55580828706948,-234.48161044553922)" fill="none" stroke="#00b161" filter="url(#bbburst-blur-2)"></use><use xlink:href="#bbburst-shape-10" width="18.074651164051243" opacity="0.5746621344435952" transform="matrix(0.8962479650777894,-0.44355336217181535,0.44355336217181535,0.8962479650777894,333.91645176149916,-104.05475099443319)" fill="none" stroke="#00b161" filter="url(#bbburst-blur-1)"></use><use xlink:href="#bbburst-shape-10" width="11.241963627077885" opacity="0.8183819059004072" transform="matrix(0.8350150288741838,0.5502271363303032,-0.5502271363303032,0.8350150288741838,574.1912780892801,133.48131730868096)" fill="none" stroke="#2c2891"></use><use xlink:href="#bbburst-shape-10" width="26.569617257327927" opacity="0.5833977544818062" transform="matrix(0.7996589666508548,0.6004544421143765,-0.6004544421143765,0.7996589666508548,551.4334715335274,242.57623491179896)" fill="none" stroke="#d62518" filter="url(#bbburst-blur-1)"></use><use xlink:href="#bbburst-shape-5" width="7.997620956233517" opacity="0.8795321804101628" transform="matrix(0.8518263907771523,-0.5238242071301881,0.5238242071301881,0.8518263907771523,133.4062184854711,69.0855242819377)" fill="#2c2891"></use><use xlink:href="#bbburst-shape-10" width="24.982954962291792" opacity="0.4660299714434627" transform="matrix(0.9149581279787266,0.40354878768949876,-0.40354878768949876,0.9149581279787266,323.94450246307906,110.46752827850361)" fill="none" stroke="#00b161" filter="url(#bbburst-blur-2)"></use><use xlink:href="#bbburst-shape-13" width="17.62939595786455" opacity="0.6413919732211428" transform="matrix(0.9773617412898123,0.2115751087981426,-0.2115751087981426,0.9773617412898123,362.7283249521201,-107.73397348348135)" fill="none" stroke="#2c2891" filter="url(#bbburst-blur-1)"></use><use xlink:href="#bbburst-shape-5" width="22.586453378887704" opacity="0.432841335132065" transform="matrix(0.9039770120925291,-0.4275810585237184,0.4275810585237184,0.9039770120925291,464.1921247718406,-26.764991540465644)" fill="#d62518" filter="url(#bbburst-blur-2)"></use><use xlink:href="#bbburst-shape-13" width="6.03049957497396" opacity="0.9236418021633874" transform="matrix(0.9172411785675104,-0.3983322988913709,0.3983322988913709,0.9172411785675104,225.38762992120573,2.3030743533819305)" fill="none" stroke="#2c2891"></use><use xlink:href="#bbburst-shape-13" width="32.60536549702937" opacity="-0.09572002267186397" transform="matrix(1.5453297771702095,0.8212526284835079,-0.8212526284835079,1.5453297771702095,368.3133836928388,130.28131107336287)" fill="none" stroke="#2c2891" filter="url(#bbburst-blur-4)"></use><use xlink:href="#bbburst-shape-5" width="15.840757510595184" opacity="0.7520436240351133" transform="matrix(0.9402422584583093,0.3405062340240157,-0.3405062340240157,0.9402422584583093,638.3420898353546,0.20767696570169392)" fill="#d62518" filter="url(#bbburst-blur-1)"></use><use xlink:href="#bbburst-shape-13" width="21.86462128586207" opacity="0.510270760851037" transform="matrix(0.8920290774103034,0.4519780139061224,-0.4519780139061224,0.8920290774103034,769.0381765461013,-58.51522092127777)" fill="none" stroke="#d62518" filter="url(#bbburst-blur-2)"></use><use xlink:href="#bbburst-shape-13" width="6.2969527462416295" opacity="0.9605264693193882" transform="matrix(0.9236270393610487,-0.3832924368692184,0.3832924368692184,0.9236270393610487,244.40960873318627,14.004221523424405)" fill="none" stroke="#00b161"></use><use xlink:href="#bbburst-shape-13" width="9.325442400386468" opacity="0.9145491673283019" transform="matrix(0.7464188656728734,0.6654764285589843,-0.6654764285589843,0.7464188656728734,627.183507299572,113.04263392658737)" fill="none" stroke="#d62518"></use><use xlink:href="#bbburst-shape-10" width="23.31212452408839" opacity="0.5230018096501768" transform="matrix(0.8635255758537808,0.5043050464217033,-0.5043050464217033,0.8635255758537808,589.9048820242743,263.3536012852227)" fill="none" stroke="#2c2891" filter="url(#bbburst-blur-2)"></use><use xlink:href="#bbburst-shape-13" width="26.941977435869973" opacity="0.26705404766211127" transform="matrix(1.1899858826056193,-0.3826664333323807,0.3826664333323807,1.1899858826056193,552.8588162037466,0.7811652296012994)" fill="none" stroke="#2c2891" filter="url(#bbburst-blur-3)"></use><use xlink:href="#bbburst-shape-11" width="39.38562832033482" opacity="0.32257229968303835" transform="matrix(0.9095923406473873,0.8574040901672952,-0.8574040901672952,0.9095923406473873,517.0160553427158,241.23496533584392)" fill="none" stroke="#d62518" filter="url(#bbburst-blur-3)"></use><use xlink:href="#bbburst-shape-5" width="31.606982906036027" opacity="0.21041652288425172" transform="matrix(1.13174896017453,0.5307016969483609,-0.5307016969483609,1.13174896017453,889.4477956957802,-259.05348499266427)" fill="#2c2891" filter="url(#bbburst-blur-3)"></use><use xlink:href="#bbburst-shape-10" width="28.266825414920522" opacity="0.26995037831294777" transform="matrix(1.2013101908641892,-0.34547622975516695,0.34547622975516695,1.2013101908641892,-83.67448362560944,-78.9769624038313)" fill="none" stroke="#2c2891" filter="url(#bbburst-blur-3)"></use><use xlink:href="#bbburst-shape-10" width="17.266754544990118" opacity="0.5495608868703816" transform="matrix(0.9990160117317214,0.04435096733607052,-0.04435096733607052,0.9990160117317214,207.72377619953335,22.9823749941757)" fill="none" stroke="#2c2891" filter="url(#bbburst-blur-2)"></use><use xlink:href="#bbburst-shape-10" width="35.032118099013196" opacity="-0.11145612087911094" transform="matrix(1.4629740157016675,-0.9603161090920725,0.9603161090920725,1.4629740157016675,-368.81225396144043,-516.5510713549696)" fill="none" stroke="#d62518" filter="url(#bbburst-blur-4)"></use><use xlink:href="#bbburst-shape-10" width="20.764473028992683" opacity="0.497533602288204" transform="matrix(0.9385516693547435,-0.345138760430387,0.345138760430387,0.9385516693547435,422.9999015702216,176.32858749420308)" fill="none" stroke="#d62518" filter="url(#bbburst-blur-2)"></use><use xlink:href="#bbburst-shape-10" width="15.632188539805735" opacity="0.6335693525731485" transform="matrix(0.9708824074783337,0.23955657129178243,-0.23955657129178243,0.9708824074783337,402.95366221014183,-131.35369587951254)" fill="none" stroke="#d62518" filter="url(#bbburst-blur-1)"></use><use xlink:href="#bbburst-shape-5" width="38.7322498706002" opacity="0.0016863068894423794" transform="matrix(1.721824007312136,-0.3127652279963002,0.3127652279963002,1.721824007312136,-114.69248389424875,-8.976189341571398)" fill="#2c2891" filter="url(#bbburst-blur-4)"></use><use xlink:href="#bbburst-shape-13" width="27.12023044199068" opacity="0.0031360612954881573" transform="matrix(1.7383951948363268,-0.2012017558819238,0.2012017558819238,1.7383951948363268,31.116157254155894,-654.7026611888692)" fill="none" stroke="#2c2891" filter="url(#bbburst-blur-4)"></use><use xlink:href="#bbburst-shape-10" width="11.050615942639668" opacity="0.7418129426970809" transform="matrix(0.8996650052280435,-0.43658089556006063,0.43658089556006063,0.8996650052280435,240.11788748321223,-71.95196427708095)" fill="none" stroke="#2c2891" filter="url(#bbburst-blur-1)"></use><use xlink:href="#bbburst-shape-13" width="20.479715926625275" opacity="0.5820848209212433" transform="matrix(0.9998290378698091,0.018490403790394377,-0.018490403790394377,0.9998290378698091,335.84988332455714,-177.9089161067536)" fill="none" stroke="#d62518" filter="url(#bbburst-blur-1)"></use><use xlink:href="#bbburst-shape-13" width="36.014806558475314" opacity="0.32854213074027194" transform="matrix(1.0212008522076608,-0.7208667140674118,0.7208667140674118,1.0212008522076608,394.16553624638334,-23.006197419486227)" fill="none" stroke="#2c2891" filter="url(#bbburst-blur-3)"></use><use xlink:href="#bbburst-shape-10" width="21.524977275017854" opacity="0.44455328758834445" transform="matrix(0.8623489863945843,-0.5063143545903404,0.5063143545903404,0.8623489863945843,141.55391399212746,-185.05155414910962)" fill="none" stroke="#d62518" filter="url(#bbburst-blur-2)"></use><use xlink:href="#bbburst-shape-13" width="15.154075773242834" opacity="0.7582885374529809" transform="matrix(0.8661996473791773,-0.49969807972433594,0.49969807972433594,0.8661996473791773,125.79078721194583,142.38643397403223)" fill="none" stroke="#00b161" filter="url(#bbburst-blur-1)"></use><use xlink:href="#bbburst-shape-11" width="17.43967897732381" opacity="0.6241630644250937" transform="matrix(0.9406027886308206,0.33950904850964403,-0.33950904850964403,0.9406027886308206,390.25490243174596,119.1705279386864)" fill="none" stroke="#00b161" filter="url(#bbburst-blur-1)"></use><use xlink:href="#bbburst-shape-10" width="13.030263565188193" opacity="0.7712231979326349" transform="matrix(0.9815932396762509,0.19098353809132945,-0.19098353809132945,0.9815932396762509,571.4113154495653,23.838170373748085)" fill="none" stroke="#2c2891" filter="url(#bbburst-blur-1)"></use><use xlink:href="#bbburst-shape-5" width="12.52100888496631" opacity="0.7865182528909713" transform="matrix(0.987172287471444,0.15965861971217452,-0.15965861971217452,0.987172287471444,385.48561989874196,-59.24296981836045)" fill="#2c2891"></use><use xlink:href="#bbburst-shape-10" width="9.387713996915991" opacity="0.7950760298883951" transform="matrix(0.9194596726423755,-0.39318432113243756,0.39318432113243756,0.9194596726423755,156.68285319165307,76.77408439965814)" fill="none" stroke="#2c2891"></use><use xlink:href="#bbburst-shape-13" width="10.207664661114723" opacity="0.913202881787958" transform="matrix(0.8593003385712678,-0.5114713365686337,0.5114713365686337,0.8593003385712678,229.3163814999533,51.182682553096015)" fill="none" stroke="#2c2891"></use><use xlink:href="#bbburst-shape-11" width="34.601410366789246" opacity="0.293262962164889" transform="matrix(0.9711918479921227,0.786947516924506,-0.786947516924506,0.9711918479921227,995.877028109716,-114.8120195331627)" fill="none" stroke="#2c2891" filter="url(#bbburst-blur-3)"></use><use xlink:href="#bbburst-shape-13" width="28.04966811493992" opacity="0.145038683292678" transform="matrix(1.2400827898923636,-0.1571453919552585,0.1571453919552585,1.2400827898923636,459.4316951999404,-452.3095169911139)" fill="none" stroke="#d62518" filter="url(#bbburst-blur-3)"></use><use xlink:href="#bbburst-shape-13" width="6.615878150141263" opacity="0.9496834791773555" transform="matrix(0.9619971386461602,-0.2730595269105264,0.2730595269105264,0.9619971386461602,265.2065640619604,19.493262782490945)" fill="none" stroke="#d62518"></use><use xlink:href="#bbburst-shape-10" width="21.16555935082181" opacity="0.17280002241949888" transform="matrix(1.1120739581897894,0.5707814919179623,-0.5707814919179623,1.1120739581897894,571.1426712208846,318.5908458915638)" fill="none" stroke="#00b161" filter="url(#bbburst-blur-3)"></use><use xlink:href="#bbburst-shape-11" width="13.001026904481508" opacity="0.7036854697800894" transform="matrix(0.9012476720271166,-0.4333043199250417,0.4333043199250417,0.9012476720271166,353.2471084748007,57.12382517588816)" fill="none" stroke="#d62518" filter="url(#bbburst-blur-1)"></use><use xlink:href="#bbburst-shape-10" width="17.77179608373484" opacity="0.6531870160238116" transform="matrix(0.9491074145447281,0.3149525609615224,-0.3149525609615224,0.9491074145447281,583.3385456728204,159.07894727321178)" fill="none" stroke="#2c2891" filter="url(#bbburst-blur-1)"></use><use xlink:href="#bbburst-shape-13" width="27.928348475319353" opacity="0.2094441392839289" transform="matrix(1.02592562220394,-0.7141264717859569,0.7141264717859569,1.02592562220394,-216.64113228959198,-162.51483074920372)" fill="none" stroke="#2c2891" filter="url(#bbburst-blur-3)"></use><use xlink:href="#bbburst-shape-13" width="7.455876660360676" opacity="0.9246073650767535" transform="matrix(0.9871595608040402,-0.15973728905041057,0.15973728905041057,0.9871595608040402,356.78244637714363,-17.88475625574449)" fill="none" stroke="#2c2891"></use><use xlink:href="#bbburst-shape-10" width="15.468482383596296" opacity="0.6757131450248006" transform="matrix(0.9999212538100903,-0.012549349738408032,0.012549349738408032,0.9999212538100903,469.9757362536733,-120.084548089284)" fill="none" stroke="#00b161" filter="url(#bbburst-blur-1)"></use><use xlink:href="#bbburst-shape-13" width="14.006114466482575" opacity="0.7421583630749697" transform="matrix(0.8626688344397468,-0.5057691984357773,0.5057691984357773,0.8626688344397468,75.79745337212256,52.10087585704554)" fill="none" stroke="#2c2891" filter="url(#bbburst-blur-1)"></use><use xlink:href="#bbburst-shape-10" width="7.691958634372459" opacity="0.9366471472177622" transform="matrix(0.9660933041960387,-0.2581931981822532,0.2581931981822532,0.9660933041960387,319.79226128768954,24.318281871958902)" fill="none" stroke="#2c2891"></use><use xlink:href="#bbburst-shape-10" width="37.08153572247642" opacity="0.11260148820019178" transform="matrix(1.204827363633973,0.3330030387831474,-0.3330030387831474,1.204827363633973,148.45193939550688,79.59189643694015)" fill="none" stroke="#00b161" filter="url(#bbburst-blur-3)"></use><use xlink:href="#bbburst-shape-5" width="26.895663904283257" opacity="0.16400426298225734" transform="matrix(1.1925569505218774,-0.3745769877634772,0.3745769877634772,1.1925569505218774,-138.04810570613603,-17.148889028828535)" fill="#2c2891" filter="url(#bbburst-blur-3)"></use><use xlink:href="#bbburst-shape-10" width="12.377049499166144" opacity="0.7017636313350111" transform="matrix(0.8286841641743731,0.5597164961358747,-0.5597164961358747,0.8286841641743731,740.8162071198826,9.266358020005498)" fill="none" stroke="#2c2891" filter="url(#bbburst-blur-1)"></use><use xlink:href="#bbburst-shape-10" width="6.351913756407532" opacity="0.9231606731896416" transform="matrix(0.718999182958279,0.6950109171123336,-0.6950109171123336,0.718999182958279,683.6643000712663,76.54008594123059)" fill="none" stroke="#2c2891"></use><use xlink:href="#bbburst-shape-13" width="38.0550897450468" opacity="0.06442672463353916" transform="matrix(1.6549967063169924,0.5687582105604341,-0.5687582105604341,1.6549967063169924,819.1872936813459,84.16781279208737)" fill="none" stroke="#d62518" filter="url(#bbburst-blur-4)"></use><use xlink:href="#bbburst-shape-5" width="22.747635049870343" opacity="0.5356928054010008" transform="matrix(0.8899176399153961,-0.4561212494144638,0.4561212494144638,0.8899176399153961,191.7083346841199,-159.12514802777036)" fill="#2c2891" filter="url(#bbburst-blur-2)"></use><use xlink:href="#bbburst-shape-13" width="9.311347268852483" opacity="0.876959172385659" transform="matrix(0.8379959191908929,0.5456764970377691,-0.5456764970377691,0.8379959191908929,662.0308688948508,34.082808310031965)" fill="none" stroke="#2c2891"></use><use xlink:href="#bbburst-shape-10" width="11.62018210386977" opacity="0.847111569803486" transform="matrix(0.7164848916434955,0.6976026089734818,-0.6976026089734818,0.7164848916434955,730.5133705108233,149.8268302587265)" fill="none" stroke="#2c2891"></use><use xlink:href="#bbburst-shape-13" width="44.13999652735035" opacity="-0.10367819924869459" transform="matrix(1.5962168634351477,-0.7173504895692613,0.7173504895692613,1.5962168634351477,425.75357514320285,-577.0789549179035)" fill="none" stroke="#00b161" filter="url(#bbburst-blur-4)"></use><use xlink:href="#bbburst-shape-10" width="23.705295047754912" opacity="0.11624627037862267" transform="matrix(1.1976678937024432,0.3578988913008157,-0.3578988913008157,1.1976678937024432,893.5403895767615,-242.1825899624955)" fill="none" stroke="#2c2891" filter="url(#bbburst-blur-3)"></use><use xlink:href="#bbburst-shape-13" width="15.321514725761268" opacity="0.6277563730809164" transform="matrix(0.7665801886907659,0.6421485920772774,-0.6421485920772774,0.7665801886907659,813.5762396062318,128.74957416942664)" fill="none" stroke="#2c2891" filter="url(#bbburst-blur-1)"></use><use xlink:href="#bbburst-shape-13" width="32.49592463940045" opacity="0.022001636281055892" transform="matrix(1.7483793951227335,-0.07529602054733274,0.07529602054733274,1.7483793951227335,701.1286924067686,-44.48318130394182)" fill="none" stroke="#00b161" filter="url(#bbburst-blur-4)"></use><use xlink:href="#bbburst-shape-13" width="8.280991461416765" opacity="0.7751296183945084" transform="matrix(0.9948114746620571,0.1017355880737086,-0.1017355880737086,0.9948114746620571,480.72755505596683,-89.39705319784599)" fill="none" stroke="#2c2891" filter="url(#bbburst-blur-1)"></use><use xlink:href="#bbburst-shape-13" width="9.103377670848221" opacity="0.8199960617900922" transform="matrix(0.9453218111360825,-0.32613903996669386,0.32613903996669386,0.9453218111360825,341.47789212764866,50.729297375176714)" fill="none" stroke="#2c2891"></use><use xlink:href="#bbburst-shape-5" width="17.04460392891976" opacity="0.700831786025777" transform="matrix(0.993039845028924,0.11777888683856148,-0.11777888683856148,0.993039845028924,524.3139837101355,105.63365030082014)" fill="#2c2891" filter="url(#bbburst-blur-1)"></use><use xlink:href="#bbburst-shape-10" width="27.127166747768943" opacity="0.254088936231173" transform="matrix(1.1831654194908683,-0.4032611934230689,0.4032611934230689,1.1831654194908683,400.7334503243448,-352.31895494931604)" fill="none" stroke="#00b161" filter="url(#bbburst-blur-3)"></use><use xlink:href="#bbburst-shape-10" width="33.53976916885367" opacity="0.4021626593975779" transform="matrix(0.9839983081175832,0.1781778033923807,-0.1781778033923807,0.9839983081175832,187.7084375806992,35.87451867882896)" fill="none" stroke="#2c2891" filter="url(#bbburst-blur-2)"></use><use xlink:href="#bbburst-shape-10" width="31.98243018262587" opacity="0.3146362531677266" transform="matrix(1.248898695815357,-0.052459961787066356,0.052459961787066356,1.248898695815357,301.4206275767207,204.2620537603009)" fill="none" stroke="#2c2891" filter="url(#bbburst-blur-3)"></use><use xlink:href="#bbburst-shape-10" width="11.482186683004338" opacity="0.805562344791557" transform="matrix(0.8567375375477527,-0.5157526459036473,0.5157526459036473,0.8567375375477527,203.63736879013337,146.49232363266577)" fill="none" stroke="#2c2891"></use><use xlink:href="#bbburst-shape-13" width="20.61160201284586" opacity="0.6363378312099064" transform="matrix(0.8640095751938197,0.5034753757368826,-0.5034753757368826,0.8640095751938197,716.5884402459242,155.88080920041136)" fill="none" stroke="#2c2891" filter="url(#bbburst-blur-1)"></use><use xlink:href="#bbburst-shape-13" width="9.353331421507033" opacity="0.754659355418285" transform="matrix(0.9980125135067183,0.06301605258981584,-0.06301605258981584,0.9980125135067183,404.1965809228742,-108.68675221157838)" fill="none" stroke="#2c2891" filter="url(#bbburst-blur-1)"></use><use xlink:href="#bbburst-shape-13" width="7.494103120057911" opacity="0.9783658012272908" transform="matrix(0.9772524995140821,-0.2120791177685324,0.2120791177685324,0.9772524995140821,302.9095602342142,5.325327451544297)" fill="none" stroke="#00b161"></use><use xlink:href="#bbburst-shape-11" width="7.355085670672069" opacity="0.9405470682534379" transform="matrix(0.8577197886564799,-0.5141174614298598,0.5141174614298598,0.8577197886564799,202.29979100510752,83.04120576258077)" fill="none" stroke="#00b161"></use><use xlink:href="#bbburst-shape-5" width="32.06396951758241" opacity="0.1058719179538592" transform="matrix(1.7366718926434033,0.2155707245949219,-0.2155707245949219,1.7366718926434033,211.56676734536973,19.636052145740905)" fill="#2c2891" filter="url(#bbburst-blur-4)"></use><use xlink:href="#bbburst-shape-10" width="10.58222712394047" opacity="0.8218887690292601" transform="matrix(0.9148879941806253,-0.4037077632448404,0.4037077632448404,0.9148879941806253,173.67557292132713,89.321844399062)" fill="none" stroke="#d62518"></use><use xlink:href="#bbburst-shape-10" width="8.273281991615693" opacity="0.8599321143710268" transform="matrix(0.8039602623820064,0.5946830218785933,-0.5946830218785933,0.8039602623820064,675.9663690458441,28.44455373853134)" fill="none" stroke="#2c2891"></use><use xlink:href="#bbburst-shape-13" width="7.569485202196405" opacity="0.9833353748989244" transform="matrix(0.8006908217827421,0.599077797880106,-0.599077797880106,0.8006908217827421,642.6922636825734,81.83000613782559)" fill="none" stroke="#2c2891"></use><use xlink:href="#bbburst-shape-13" width="5.778569377482137" opacity="0.8586389726568622" transform="matrix(0.7353590321900146,0.6776777211747226,-0.6776777211747226,0.7353590321900146,658.3323671390383,41.1776760302331)" fill="none" stroke="#2c2891"></use><use xlink:href="#bbburst-shape-10" width="18.076654769647046" opacity="0.5972992725771535" transform="matrix(0.8758307499707934,0.4826183765726266,-0.4826183765726266,0.8758307499707934,766.321818933064,48.30321850963247)" fill="none" stroke="#2c2891" filter="url(#bbburst-blur-1)"></use><use xlink:href="#bbburst-shape-5" width="16.641255667772786" opacity="0.587931698650529" transform="matrix(0.9986618462868218,0.051715730401846606,-0.051715730401846606,0.9986618462868218,239.71694647965444,67.72995465503914)" fill="#2c2891" filter="url(#bbburst-blur-1)"></use><use xlink:href="#bbburst-shape-13" width="33.589315679058046" opacity="0.3492181918029269" transform="matrix(0.9812139018072877,-0.19292298696660884,0.19292298696660884,0.9812139018072877,409.09391735820446,-263.4830001011327)" fill="none" stroke="#2c2891" filter="url(#bbburst-blur-2)"></use><use xlink:href="#bbburst-shape-5" width="33.65578057718403" opacity="0.35562455532989723" transform="matrix(0.8792860099649281,-0.47629414512458196,0.47629414512458196,0.8792860099649281,22.544756206336075,-177.0434359566156)" fill="#2c2891" filter="url(#bbburst-blur-2)"></use><use xlink:href="#bbburst-shape-11" width="23.26069583075576" opacity="0.40558314272623985" transform="matrix(0.8095925799421134,0.5869922099165138,-0.5869922099165138,0.8095925799421134,636.333054448266,-198.17707377898597)" fill="none" stroke="#00b161" filter="url(#bbburst-blur-2)"></use><use xlink:href="#bbburst-shape-10" width="16.438045551833735" opacity="0.49051908431108215" transform="matrix(0.9915650271783855,0.12961017273627776,-0.12961017273627776,0.9915650271783855,344.0565945542462,-204.17468096071016)" fill="none" stroke="#00b161" filter="url(#bbburst-blur-2)"></use><use xlink:href="#bbburst-shape-13" width="10.092166062453966" opacity="0.7531981042836629" transform="matrix(0.8984078962240829,0.4391619883394025,-0.4391619883394025,0.8984078962240829,644.3316267183349,-45.103048525453005)" fill="none" stroke="#d62518" filter="url(#bbburst-blur-1)"></use><use xlink:href="#bbburst-shape-10" width="6.588558645763089" opacity="0.9375761281496515" transform="matrix(0.7348681877444908,-0.6782099576393197,0.6782099576393197,0.7348681877444908,103.5067416097234,91.86201814861431)" fill="none" stroke="#2c2891"></use><use xlink:href="#bbburst-shape-5" width="28.136186679077035" opacity="0.14906418834602875" transform="matrix(1.099875365808501,0.5939479604204532,-0.5939479604204532,1.099875365808501,738.3800635787501,316.5350984380248)" fill="#2c2891" filter="url(#bbburst-blur-3)"></use><use xlink:href="#bbburst-shape-10" width="8.845288510591143" opacity="0.9107090153527002" transform="matrix(0.7182684534951446,0.6957660732700993,-0.6957660732700993,0.7182684534951446,672.3082958122347,149.6972512336397)" fill="none" stroke="#2c2891"></use><use xlink:href="#bbburst-shape-13" width="24.227668389450848" opacity="0.5695094456741308" transform="matrix(0.7523337075749963,-0.6587822041057727,0.6587822041057727,0.7523337075749963,315.8265986551563,62.1788356615682)" fill="none" stroke="#2c2891" filter="url(#bbburst-blur-1)"></use><use xlink:href="#bbburst-shape-13" width="21.11492490426248" opacity="0.5678092576502203" transform="matrix(0.9293797755811105,0.36912495545655627,-0.36912495545655627,0.9293797755811105,619.7036262265083,-152.0654116495337)" fill="none" stroke="#2c2891" filter="url(#bbburst-blur-1)"></use><use xlink:href="#bbburst-shape-11" width="22.223977232240816" opacity="0.2952155897036849" transform="matrix(1.2129532973922028,0.3020667117465654,-0.3020667117465654,1.2129532973922028,555.755147607173,-402.3356837728411)" fill="none" stroke="#2c2891" filter="url(#bbburst-blur-3)"></use><use xlink:href="#bbburst-shape-10" width="32.02302416906477" opacity="0.17012065915187113" transform="matrix(1.0702002680565883,0.6458880601556327,-0.6458880601556327,1.0702002680565883,416.5633940034855,-336.7357251854855)" fill="none" stroke="#d62518" filter="url(#bbburst-blur-3)"></use><use xlink:href="#bbburst-shape-10" width="13.964372454545884" opacity="0.7185567372784436" transform="matrix(0.9892039887831431,0.146545107647848,-0.146545107647848,0.9892039887831431,500.4892575738501,-113.58418984801068)" fill="none" stroke="#00b161" filter="url(#bbburst-blur-1)"></use><use xlink:href="#bbburst-shape-11" width="15.380024833651326" opacity="0.7247101778531646" transform="matrix(0.7680416668641592,0.6403998734857183,-0.6403998734857183,0.7680416668641592,575.810875334662,-11.216310470292797)" fill="none" stroke="#2c2891" filter="url(#bbburst-blur-1)"></use><use xlink:href="#bbburst-shape-13" width="27.738451918397164" opacity="0.28137975773954504" transform="matrix(1.1654391193813458,0.4519420969722041,-0.4519420969722041,1.1654391193813458,709.3125752423955,216.75532396678187)" fill="none" stroke="#2c2891" filter="url(#bbburst-blur-3)"></use><use xlink:href="#bbburst-shape-10" width="11.06276203149288" opacity="0.6824892183327068" transform="matrix(0.9926140099825516,-0.12131540374725307,0.12131540374725307,0.9926140099825516,205.17309026189054,27.856388156775893)" fill="none" stroke="#00b161" filter="url(#bbburst-blur-1)"></use><use xlink:href="#bbburst-shape-10" width="15.41331166170217" opacity="0.716437048618903" transform="matrix(0.8026499844316638,0.5964503353103675,-0.5964503353103675,0.8026499844316638,529.2470571050562,-0.7781071924854928)" fill="none" stroke="#2c2891" filter="url(#bbburst-blur-1)"></use><use xlink:href="#bbburst-shape-11" width="28.653937506354342" opacity="0.4597875197263914" transform="matrix(0.9983451904658337,0.057505483857961406,-0.057505483857961406,0.9983451904658337,343.8681675609071,233.75490662884488)" fill="none" stroke="#2c2891" filter="url(#bbburst-blur-2)"></use><use xlink:href="#bbburst-shape-10" width="9.646572901079466" opacity="0.8482974338117318" transform="matrix(0.8939703162977573,0.4481261804207469,-0.4481261804207469,0.8939703162977573,526.8943304274657,-8.247156622390492)" fill="none" stroke="#00b161"></use><use xlink:href="#bbburst-shape-5" width="7.771696766751451" opacity="0.8704991888480053" transform="matrix(0.9692780703120314,0.24596752308421702,-0.24596752308421702,0.9692780703120314,467.97793261786813,-40.495484573935414)" fill="#d62518"></use><use xlink:href="#bbburst-shape-10" width="31.08749581184435" opacity="0.4517883698117213" transform="matrix(0.8895338563338233,0.4568692574860745,-0.4568692574860745,0.8895338563338233,433.78395706184745,243.474227430503)" fill="none" stroke="#00b161" filter="url(#bbburst-blur-2)"></use><use xlink:href="#bbburst-shape-11" width="25.060924982588404" opacity="0.4809881958217044" transform="matrix(0.978519556118662,0.2061540159524831,-0.2061540159524831,0.978519556118662,677.0303919607926,114.3066774175918)" fill="none" stroke="#2c2891" filter="url(#bbburst-blur-2)"></use><use xlink:href="#bbburst-shape-13" width="19.63987287870241" opacity="0.48670883816426713" transform="matrix(0.8640296677068542,-0.5034408935737968,0.5034408935737968,0.8640296677068542,244.81134651020503,-165.08547792280743)" fill="none" stroke="#2c2891" filter="url(#bbburst-blur-2)"></use><use xlink:href="#bbburst-shape-5" width="28.248905385965863" opacity="0.252186679195501" transform="matrix(1.1411391261424364,-0.510197505665087,0.510197505665087,1.1411391261424364,39.73930067968803,-355.2316860973626)" fill="#d62518" filter="url(#bbburst-blur-3)"></use><use xlink:href="#bbburst-shape-13" width="19.9569511592858" opacity="0.6045030688377803" transform="matrix(0.8919296156165955,-0.4521742593138538,0.4521742593138538,0.8919296156165955,38.73201321237639,0.16928776694805947)" fill="none" stroke="#00b161" filter="url(#bbburst-blur-1)"></use><use xlink:href="#bbburst-shape-10" width="33.03789234527849" opacity="0.18495272314226863" transform="matrix(1.2339475546107121,-0.1996833304766411,0.1996833304766411,1.2339475546107121,666.1431435361101,-73.78159921027554)" fill="none" stroke="#d62518" filter="url(#bbburst-blur-3)"></use><use xlink:href="#bbburst-shape-10" width="27.14493649857659" opacity="0.4998707384386025" transform="matrix(0.9998211085727601,-0.01891430285093902,0.01891430285093902,0.9998211085727601,172.84028654612635,-90.25485252641658)" fill="none" stroke="#2c2891" filter="url(#bbburst-blur-2)"></use><use xlink:href="#bbburst-shape-13" width="36.19835692071265" opacity="0.25944848646131646" transform="matrix(1.2264630886763153,0.24142968358209987,-0.24142968358209987,1.2264630886763153,222.3281341169131,-312.96247801635695)" fill="none" stroke="#d62518" filter="url(#bbburst-blur-3)"></use><use xlink:href="#bbburst-shape-10" width="9.183155973394502" opacity="0.8772349967010998" transform="matrix(0.9869531507086914,-0.16100769641910645,0.16100769641910645,0.9869531507086914,289.2226656542091,42.029139524031905)" fill="none" stroke="#2c2891"></use><use xlink:href="#bbburst-shape-10" width="20.392562461414848" opacity="0.515696348230297" transform="matrix(0.760844697796716,0.6489340073032264,-0.6489340073032264,0.760844697796716,435.34529291764204,63.808537669408395)" fill="none" stroke="#2c2891" filter="url(#bbburst-blur-2)"></use><use xlink:href="#bbburst-shape-5" width="12.507991733859154" opacity="0.768869654197317" transform="matrix(0.7987808633086989,-0.6016220843783991,0.6016220843783991,0.7987808633086989,60.36048176376761,39.72245558643141)" fill="#2c2891" filter="url(#bbburst-blur-1)"></use><use xlink:href="#bbburst-shape-5" width="23.757406270875357" opacity="0.519988566039427" transform="matrix(0.7782801553927341,0.6279171917712253,-0.6279171917712253,0.7782801553927341,508.32325749798906,-88.50487104697905)" fill="#2c2891" filter="url(#bbburst-blur-2)"></use><use xlink:href="#bbburst-shape-11" width="39.09961073524387" opacity="0.19480291459927657" transform="matrix(1.1356804051998879,0.5222355955361706,-0.5222355955361706,1.1356804051998879,298.33158679778455,154.0026789870425)" fill="none" stroke="#2c2891" filter="url(#bbburst-blur-3)"></use><use xlink:href="#bbburst-shape-10" width="14.56864920906138" opacity="0.6704865417118068" transform="matrix(0.9863329578988401,-0.16476436557254964,0.16476436557254964,0.9863329578988401,347.48413362396315,-140.17970097619806)" fill="none" stroke="#d62518" filter="url(#bbburst-blur-1)"></use><use xlink:href="#bbburst-shape-11" width="6.567157025397281" opacity="0.7893307463700558" transform="matrix(0.9914744472525118,0.1303012680111987,-0.1303012680111987,0.9914744472525118,459.8115078290056,-91.26986668965378)" fill="none" stroke="#d62518"></use><use xlink:href="#bbburst-shape-13" width="10.796392126913947" opacity="0.8786963041834657" transform="matrix(0.9037671267343133,-0.42802450938515635,0.42802450938515635,0.9037671267343133,241.156374551793,92.5948052707725)" fill="none" stroke="#2c2891"></use><use xlink:href="#bbburst-shape-13" width="22.700539395252854" opacity="0.5999441731839897" transform="matrix(0.999826846082819,-0.018608542449182686,0.018608542449182686,0.999826846082819,419.19837618609387,176.25148933649314)" fill="none" stroke="#d62518" filter="url(#bbburst-blur-1)"></use><use xlink:href="#bbburst-shape-5" width="14.033972216168527" opacity="0.7121420813698323" transform="matrix(0.9794208852209545,0.20182846576487165,-0.20182846576487165,0.9794208852209545,432.15936888411215,129.45615107436817)" fill="#00b161" filter="url(#bbburst-blur-1)"></use><use xlink:href="#bbburst-shape-13" width="28.588886040896618" opacity="0.348582864702646" transform="matrix(0.973114455263976,-0.2303220722299435,0.2303220722299435,0.973114455263976,562.7108945934158,131.10734368319436)" fill="none" stroke="#d62518" filter="url(#bbburst-blur-2)"></use><use xlink:href="#bbburst-shape-10" width="34.29251641886084" opacity="0.2968858345243588" transform="matrix(0.9627916431621973,0.7972027670906794,-0.7972027670906794,0.9627916431621973,926.2545617208636,-222.362985432635)" fill="none" stroke="#2c2891" filter="url(#bbburst-blur-3)"></use><use xlink:href="#bbburst-shape-10" width="22.22997315725376" opacity="0.16831326723888995" transform="matrix(1.2475735207926195,-0.07784799430368929,0.07784799430368929,1.2475735207926195,405.6102997746832,-468.98458804948694)" fill="none" stroke="#d62518" filter="url(#bbburst-blur-3)"></use><use xlink:href="#bbburst-shape-5" width="33.55867505692248" opacity="0.24087255020652298" transform="matrix(1.0858363016115657,0.6192410888357754,-0.6192410888357754,1.0858363016115657,669.8410741715057,294.4892689037836)" fill="#d62518" filter="url(#bbburst-blur-3)"></use><use xlink:href="#bbburst-shape-11" width="7.563657324367917" opacity="0.8953789895191522" transform="matrix(0.8823715436375043,0.4705533540192524,-0.4705533540192524,0.8823715436375043,581.5664488176271,-1.7733094171686616)" fill="none" stroke="#00b161"></use><use xlink:href="#bbburst-shape-13" width="8.32241020373696" opacity="0.8033425809672611" transform="matrix(0.8461914311443454,-0.5328790311673791,0.5328790311673791,0.8461914311443454,168.80086293023288,-23.55462110656231)" fill="none" stroke="#2c2891"></use><use xlink:href="#bbburst-shape-11" width="17.801175649924403" opacity="0.6889204809269756" transform="matrix(0.9451950538367629,0.32650621770881927,-0.32650621770881927,0.9451950538367629,476.7757743630426,-113.5897264880686)" fill="none" stroke="#2c2891" filter="url(#bbburst-blur-1)"></use><use xlink:href="#bbburst-shape-10" width="42.51891716985009" opacity="0.16077231913827217" transform="matrix(0.9376725164623724,-0.8266016282775651,0.8266016282775651,0.9376725164623724,309.84675516917787,316.0033753560417)" fill="none" stroke="#d62518" filter="url(#bbburst-blur-3)"></use><use xlink:href="#bbburst-shape-10" width="32.94932336787242" opacity="0.3204293172040913" transform="matrix(1.1114858521820499,0.5719258696711862,-0.5719258696711862,1.1114858521820499,851.399536450425,134.30614808370694)" fill="none" stroke="#2c2891" filter="url(#bbburst-blur-3)"></use><use xlink:href="#bbburst-shape-10" width="13.0291332005866" opacity="0.786969928769647" transform="matrix(0.8428341353773176,-0.5381734109399772,0.5381734109399772,0.8428341353773176,157.77441026023897,159.80167439101922)" fill="none" stroke="#d62518"></use><use xlink:href="#bbburst-shape-10" width="12.385898477152816" opacity="0.7766113849039025" transform="matrix(0.9400455296147975,0.3410489733912636,-0.3410489733912636,0.9400455296147975,606.0996947804708,88.23786718289637)" fill="none" stroke="#d62518" filter="url(#bbburst-blur-1)"></use><use xlink:href="#bbburst-shape-10" width="10.856525641564481" opacity="0.7635512511106423" transform="matrix(0.9050831082392129,0.4252347201017872,-0.4252347201017872,0.9050831082392129,461.9909563088729,61.604837894543095)" fill="none" stroke="#2c2891" filter="url(#bbburst-blur-1)"></use><use xlink:href="#bbburst-shape-10" width="10.45406175895575" opacity="0.8178261118426502" transform="matrix(0.9881171787524015,-0.1537024432284495,0.1537024432284495,0.9881171787524015,251.65282358217812,12.289834168608934)" fill="none" stroke="#d62518"></use><use xlink:href="#bbburst-shape-5" width="16.80039228197965" opacity="0.6440542417999137" transform="matrix(0.9995799644723643,-0.028980935551271358,0.028980935551271358,0.9995799644723643,219.92766060341057,-5.025368383205489)" fill="#2c2891" filter="url(#bbburst-blur-1)"></use><use xlink:href="#bbburst-shape-11" width="8.61346189001233" opacity="0.8988745791791906" transform="matrix(0.9739377257297588,0.22681557794901389,-0.22681557794901389,0.9739377257297588,455.92585890070126,-24.3137741729509)" fill="none" stroke="#00b161"></use><use xlink:href="#bbburst-shape-10" width="31.99146042535144" opacity="0.29239074935548137" transform="matrix(0.9565081091209633,0.8047311583291896,-0.8047311583291896,0.9565081091209633,562.8878008912128,288.6774927597319)" fill="none" stroke="#00b161" filter="url(#bbburst-blur-3)"></use><use xlink:href="#bbburst-shape-11" width="23.161292258718532" opacity="0.3936486279696628" transform="matrix(0.8100527890355355,-0.5863569552548604,0.5863569552548604,0.8100527890355355,426.1619747808388,120.0868061552635)" fill="none" stroke="#00b161" filter="url(#bbburst-blur-2)"></use><use xlink:href="#bbburst-shape-10" width="9.177792822892618" opacity="0.8830691279346039" transform="matrix(0.7419840734072127,0.6704175078337676,-0.6704175078337676,0.7419840734072127,618.3558918382673,75.32646456734545)" fill="none" stroke="#2c2891"></use><use xlink:href="#bbburst-shape-13" width="7.101494932974543" opacity="0.8696865589363758" transform="matrix(0.9678545076697764,0.2515107393001236,-0.2515107393001236,0.9678545076697764,512.5950700142926,-44.61018873039552)" fill="none" stroke="#2c2891"></use><use xlink:href="#bbburst-shape-10" width="15.224620812699964" opacity="0.5835431064300426" transform="matrix(0.8860505308065633,0.46358867205466464,-0.46358867205466464,0.8860505308065633,602.6126041295404,-143.8217167834644)" fill="none" stroke="#2c2891" filter="url(#bbburst-blur-1)"></use><use xlink:href="#bbburst-shape-13" width="23.421750204575698" opacity="0.36697994097248243" transform="matrix(0.9782481566580611,0.20743804857138834,-0.20743804857138834,0.9782481566580611,219.00115082032568,-125.55940247873468)" fill="none" stroke="#2c2891" filter="url(#bbburst-blur-2)"></use><use xlink:href="#bbburst-shape-10" width="30.705531713489197" opacity="0.05965313274211992" transform="matrix(1.307463661988824,-1.1632019483214315,1.1632019483214315,1.307463661988824,-413.01554234794395,-372.8937169798553)" fill="none" stroke="#00b161" filter="url(#bbburst-blur-4)"></use><use xlink:href="#bbburst-shape-11" width="23.080714716900555" opacity="0.29760371721273715" transform="matrix(1.0147794611825294,-0.7298785139748225,0.7298785139748225,1.0147794611825294,43.18849992611348,-309.4052372957772)" fill="none" stroke="#d62518" filter="url(#bbburst-blur-3)"></use><use xlink:href="#bbburst-shape-13" width="11.771619234684923" opacity="0.8085544667689982" transform="matrix(0.8403841530577789,0.5419912132953446,-0.5419912132953446,0.8403841530577789,692.0080472674556,29.087017113047523)" fill="none" stroke="#2c2891"></use><use xlink:href="#bbburst-shape-13" width="25.5651579111513" opacity="0.1108595897445177" transform="matrix(1.5625687285472636,-0.7879587353194251,0.7879587353194251,1.5625687285472636,-100.24739971194262,149.51110493667466)" fill="none" stroke="#2c2891" filter="url(#bbburst-blur-4)"></use><use xlink:href="#bbburst-shape-10" width="23.887427980455197" opacity="0.5633421642361998" transform="matrix(0.7280220645320314,-0.6855536985200492,0.6855536985200492,0.7280220645320314,-14.613239844847897,262.8103731589801)" fill="none" stroke="#2c2891" filter="url(#bbburst-blur-1)"></use><use xlink:href="#bbburst-shape-10" width="22.420053141612684" opacity="0.43133465278545324" transform="matrix(0.9328863840963514,-0.3601707850001644,0.3601707850001644,0.9328863840963514,415.45173780798183,-160.40755611135228)" fill="none" stroke="#2c2891" filter="url(#bbburst-blur-2)"></use><use xlink:href="#bbburst-shape-5" width="9.167867747700083" opacity="0.8235749364111689" transform="matrix(0.8728403939807827,-0.48800578545286943,0.48800578545286943,0.8728403939807827,171.1328951838559,-20.540444804557296)" fill="#2c2891"></use><use xlink:href="#bbburst-shape-11" width="30.575250484954033" opacity="0.06630760232481359" transform="matrix(1.3457822748402193,1.1186465343109433,-1.1186465343109433,1.3457822748402193,454.90366563659694,-350.4638189101557)" fill="none" stroke="#00b161" filter="url(#bbburst-blur-4)"></use><use xlink:href="#bbburst-shape-13" width="29.51862631415701" opacity="0.11377936225628671" transform="matrix(0.9541858206455323,0.8074833866272496,-0.8074833866272496,0.9541858206455323,557.4846402043496,-362.5246764763008)" fill="none" stroke="#2c2891" filter="url(#bbburst-blur-3)"></use><use xlink:href="#bbburst-shape-11" width="8.773169481750388" opacity="0.8485296868432435" transform="matrix(0.9822732936120795,-0.1874544655549117,0.1874544655549117,0.9822732936120795,257.3437791347539,32.971220898081356)" fill="none" stroke="#00b161"></use><use xlink:href="#bbburst-shape-11" width="9.35857943576059" opacity="0.8991345062544271" transform="matrix(0.7130033813021843,-0.7011605937669714,0.7011605937669714,0.7130033813021843,148.46804801681748,149.82870661834653)" fill="none" stroke="#d62518"></use><use xlink:href="#bbburst-shape-13" width="19.311503493419757" opacity="0.5553400348780301" transform="matrix(0.9725950297168809,-0.23250571642439136,0.23250571642439136,0.9725950297168809,138.4371460378868,-108.05261235999126)" fill="none" stroke="#00b161" filter="url(#bbburst-blur-2)"></use><use xlink:href="#bbburst-shape-10" width="30.202266586861604" opacity="0.27825238431508603" transform="matrix(1.0331880120321715,-0.7035783764393342,0.7035783764393342,1.0331880120321715,-209.6993062232214,-90.55046516837467)" fill="none" stroke="#d62518" filter="url(#bbburst-blur-3)"></use><use xlink:href="#bbburst-shape-10" width="8.472447852091786" opacity="0.8569575609880171" transform="matrix(0.9884379547934393,0.1516258867204501,-0.1516258867204501,0.9884379547934393,393.0444287689732,-7.03801828120578)" fill="none" stroke="#00b161"></use><use xlink:href="#bbburst-shape-10" width="9.894228961787464" opacity="0.8204991678191944" transform="matrix(0.9737464410516693,0.22763538507711845,-0.22763538507711845,0.9737464410516693,531.7522155662773,-57.35565867654691)" fill="none" stroke="#00b161"></use><use xlink:href="#bbburst-shape-5" width="12.068280906628154" opacity="0.7979576012576942" transform="matrix(0.9752696520242253,-0.22101833824492143,0.22101833824492143,0.9752696520242253,216.7520639422759,-7.566927282710594)" fill="#2c2891"></use><use xlink:href="#bbburst-shape-10" width="23.760263231847517" opacity="0.4829563955675197" transform="matrix(0.9886146755286888,0.15046934348665642,-0.15046934348665642,0.9886146755286888,680.921415714376,-6.660453637458147)" fill="none" stroke="#d62518" filter="url(#bbburst-blur-2)"></use><use xlink:href="#bbburst-shape-10" width="29.254496476607457" opacity="0.1749535901002358" transform="matrix(0.9925495329953189,0.7598324976932576,-0.7598324976932576,0.9925495329953189,1013.5294942654905,172.95068271554476)" fill="none" stroke="#d62518" filter="url(#bbburst-blur-3)"></use><use xlink:href="#bbburst-shape-11" width="19.165800127128133" opacity="0.6283011545610353" transform="matrix(0.9324305157756174,-0.36134932302470973,0.36134932302470973,0.9324305157756174,222.0472993487978,195.73721049566655)" fill="none" stroke="#2c2891" filter="url(#bbburst-blur-1)"></use><use xlink:href="#bbburst-shape-5" width="21.916097735335725" opacity="0.7181459580434344" transform="matrix(0.9929070263561985,-0.11889338506616406,0.11889338506616406,0.9929070263561985,352.04923152477596,130.5400653270799)" fill="#00b161" filter="url(#bbburst-blur-1)"></use><use xlink:href="#bbburst-shape-5" width="17.26087723046699" opacity="0.6104983799625151" transform="matrix(0.9962419646220015,-0.08661378600485335,0.08661378600485335,0.9962419646220015,512.8369113048938,82.0033268004982)" fill="#2c2891" filter="url(#bbburst-blur-1)"></use><use xlink:href="#bbburst-shape-13" width="33.51601712410993" opacity="0.3763413131400821" transform="matrix(0.9999999146714312,0.00041310668154891263,-0.00041310668154891263,0.9999999146714312,557.4132952589167,220.1846210356244)" fill="none" stroke="#2c2891" filter="url(#bbburst-blur-2)"></use><use xlink:href="#bbburst-shape-11" width="25.96808446835308" opacity="0.13169050649655178" transform="matrix(1.2282625310213033,0.23210160466731333,-0.23210160466731333,1.2282625310213033,848.2564726920417,27.0237740958313)" fill="none" stroke="#2c2891" filter="url(#bbburst-blur-3)"></use><use xlink:href="#bbburst-shape-10" width="16.073031270315727" opacity="0.6194375580035408" transform="matrix(0.973072222100429,0.23050043508968374,-0.23050043508968374,0.973072222100429,636.6117769173625,-69.5232204848781)" fill="none" stroke="#d62518" filter="url(#bbburst-blur-1)"></use><use xlink:href="#bbburst-shape-10" width="10.345311163695413" opacity="0.8311117447941753" transform="matrix(0.9718185889430653,0.2357299942406766,-0.2357299942406766,0.9718185889430653,530.4931667845036,73.89837872492473)" fill="none" stroke="#00b161"></use><use xlink:href="#bbburst-shape-10" width="18.097620356292357" opacity="0.6633321101704557" transform="matrix(0.9811415371439786,0.19329067253944496,-0.19329067253944496,0.9811415371439786,583.2203745654843,-93.08665054407953)" fill="none" stroke="#2c2891" filter="url(#bbburst-blur-1)"></use><use xlink:href="#bbburst-shape-11" width="22.127807114942037" opacity="0.4509240370444416" transform="matrix(0.7249157032291885,0.6888375884137937,-0.6888375884137937,0.7249157032291885,788.9058233732248,-113.11358081336888)" fill="none" stroke="#2c2891" filter="url(#bbburst-blur-2)"></use><use xlink:href="#bbburst-shape-13" width="28.0678990082982" opacity="0.03789102573228453" transform="matrix(1.5327790611259005,-0.8444455872192139,0.8444455872192139,1.5327790611259005,278.22668088616274,-563.2428808500588)" fill="none" stroke="#d62518" filter="url(#bbburst-blur-4)"></use><use xlink:href="#bbburst-shape-13" width="28.51974165095028" opacity="0.46479442377722757" transform="matrix(0.8101508683308767,0.5862214347349698,-0.5862214347349698,0.8101508683308767,714.1606802801982,290.47742306160916)" fill="none" stroke="#2c2891" filter="url(#bbburst-blur-2)"></use></svg>