<!DOCTYPE svg PUBLIC "-//W3C//DTD SVG 1.1//EN" "http://www.w3.org/Graphics/SVG/1.1/DTD/svg11.dtd">

<!-- Uploaded to: SVG Repo, www.svgrepo.com, Transformed by: SVG Repo Mixer Tools -->
<svg fill="#00b161" height="20px" width="20px" version="1.1" id="Icons" xmlns="http://www.w3.org/2000/svg" xmlns:xlink="http://www.w3.org/1999/xlink" viewBox="0 0 32.00 32.00" xml:space="preserve" stroke="#00b161" stroke-width="0.41600000000000004" transform="rotate(0)">

<g id="SVGRepo_bgCarrier" stroke-width="0"/>

<g id="SVGRepo_tracerCarrier" stroke-linecap="round" stroke-linejoin="round" stroke="#ffffff" stroke-width="3.2"> <path d="M16,2C8.3,2,2,8.3,2,16s6.3,14,14,14s14-6.3,14-14S23.7,2,16,2z M19,12c0-0.6,0.4-1,1-1s1,0.4,1,1v4c0,0.6-0.4,1-1,1 s-1-0.4-1-1V12z M11,12c0-0.6,0.4-1,1-1s1,0.4,1,1v4c0,0.6-0.4,1-1,1s-1-0.4-1-1V12z M21.9,19.8C20.3,21.2,18.2,22,16,22 s-4.3-0.8-5.9-2.2c-0.4-0.4-0.5-1-0.1-1.4c0.4-0.4,1-0.5,1.4-0.1c1.3,1.1,2.9,1.8,4.6,1.8s3.3-0.6,4.6-1.8c0.4-0.4,1-0.3,1.4,0.1 C22.4,18.8,22.4,19.4,21.9,19.8z"/> </g>

<g id="SVGRepo_iconCarrier"> <path d="M16,2C8.3,2,2,8.3,2,16s6.3,14,14,14s14-6.3,14-14S23.7,2,16,2z M19,12c0-0.6,0.4-1,1-1s1,0.4,1,1v4c0,0.6-0.4,1-1,1 s-1-0.4-1-1V12z M11,12c0-0.6,0.4-1,1-1s1,0.4,1,1v4c0,0.6-0.4,1-1,1s-1-0.4-1-1V12z M21.9,19.8C20.3,21.2,18.2,22,16,22 s-4.3-0.8-5.9-2.2c-0.4-0.4-0.5-1-0.1-1.4c0.4-0.4,1-0.5,1.4-0.1c1.3,1.1,2.9,1.8,4.6,1.8s3.3-0.6,4.6-1.8c0.4-0.4,1-0.3,1.4,0.1 C22.4,18.8,22.4,19.4,21.9,19.8z"/> </g>

</svg>