<?xml version="1.0" standalone="no"?>
<!DOCTYPE svg PUBLIC "-//W3C//DTD SVG 20010904//EN"
 "http://www.w3.org/TR/2001/REC-SVG-20010904/DTD/svg10.dtd">
<svg version="1.0" xmlns="http://www.w3.org/2000/svg"
 width="150px" height="150px" viewBox="0 0 1600.000000 2000.000000"
 preserveAspectRatio="xMidYMid meet">

<g transform="translate(0.000000,2000.000000) scale(0.100000,-0.100000)"
fill="#ff0000" stroke="none">
<path d="M1828 19441 c-152 -49 -271 -178 -313 -338 -13 -50 -15 -1109 -15
-9031 0 -8151 1 -8980 16 -9036 45 -174 198 -318 369 -345 85 -14 12138 -14
12225 -1 177 28 327 168 375 351 23 83 22 17977 0 18062 -42 162 -162 290
-316 338 -59 19 -201 19 -6172 18 -5900 0 -6114 -1 -6169 -18z m2809 -1056
c257 -49 392 -233 393 -533 0 -295 -122 -480 -361 -549 -38 -10 -119 -17 -271
-20 l-218 -5 0 -299 0 -299 -210 0 -210 0 0 853 c0 470 3 857 7 860 3 4 183 7
399 7 306 0 409 -3 471 -15z m1403 -9 c174 -57 266 -154 305 -318 19 -82 19
-231 -1 -318 -16 -74 -68 -169 -112 -211 l-28 -26 47 -51 c26 -28 60 -78 76
-109 l28 -58 5 -265 c3 -146 9 -272 14 -280 5 -8 18 -25 29 -37 l20 -23 -211
0 c-198 0 -213 1 -232 20 -11 11 -22 30 -25 42 -2 13 -6 129 -7 258 -4 329 -5
330 -233 330 l-135 0 0 -325 0 -325 -205 0 -205 0 0 861 0 860 408 -3 c359 -4
414 -6 462 -22z m930 -836 l0 -860 -210 0 -210 0 0 860 0 860 210 0 210 0 0
-860z m538 813 c6 -27 63 -308 128 -625 66 -318 122 -578 126 -578 5 0 8 6 8
13 0 6 57 288 127 625 l126 612 209 0 c164 0 208 -3 208 -13 0 -12 -384 -1651
-396 -1689 -5 -17 -27 -18 -284 -18 l-280 0 -5 23 c-122 513 -395 1680 -395
1687 0 6 76 10 209 10 l209 0 10 -47z m1946 30 c12 -42 396 -1679 396 -1690 0
-10 -46 -13 -208 -13 l-209 0 -38 185 -38 185 -186 0 -186 0 -29 -137 c-15
-76 -32 -159 -38 -185 l-10 -48 -209 0 c-121 0 -209 4 -209 9 0 8 369 1581
395 1684 l7 27 278 0 c257 0 279 -1 284 -17z m1636 -158 l0 -175 -195 0 -195
0 0 -685 0 -685 -210 0 -210 0 0 685 0 685 -195 0 -195 0 0 175 0 175 600 0
600 0 0 -175z m1190 0 l0 -175 -335 0 -335 0 0 -170 0 -170 265 0 265 0 0
-170 0 -170 -265 0 -265 0 0 -170 0 -170 335 0 335 0 0 -175 0 -175 -545 0
-545 0 0 853 c0 470 3 857 7 860 3 4 249 7 545 7 l538 0 0 -175z m-6005 -1900
c105 -28 185 -74 262 -151 149 -149 223 -387 223 -724 0 -236 -32 -405 -106
-558 -36 -74 -61 -109 -117 -166 -113 -115 -227 -162 -417 -173 -293 -17 -512
108 -627 356 -137 293 -133 807 9 1101 77 161 234 286 398 319 30 6 64 13 75
15 41 10 242 -3 300 -19z m-2726 -38 c177 -53 280 -159 328 -337 24 -90 24
-301 -1 -390 -44 -163 -149 -281 -290 -330 -86 -29 -183 -40 -365 -40 l-171 0
0 -300 0 -300 -210 0 -210 0 0 861 0 860 433 -4 c361 -3 441 -6 486 -20z
m1373 -5 c195 -65 293 -205 305 -437 8 -167 -33 -307 -116 -391 l-41 -41 46
-48 c26 -26 60 -78 78 -114 l31 -66 5 -266 c5 -275 6 -281 49 -316 12 -11 -27
-13 -201 -13 -241 0 -236 -1 -257 75 -6 23 -11 133 -11 263 0 189 -3 228 -16
252 -31 52 -59 60 -208 60 l-136 0 0 -325 0 -325 -205 0 -205 0 0 861 0 860
408 -3 c389 -4 410 -5 474 -26z m2905 6 c180 -55 295 -179 334 -363 18 -85 16
-276 -4 -353 -40 -152 -120 -258 -241 -317 -99 -49 -194 -64 -408 -65 l-178 0
0 -300 0 -300 -210 0 -210 0 0 861 0 860 433 -4 c354 -3 441 -6 484 -19z
m1573 -153 l0 -175 -335 0 -335 0 0 -170 0 -170 265 0 265 0 0 -170 0 -170
-265 0 -265 0 0 -170 0 -170 335 0 335 0 0 -175 0 -175 -545 0 -545 0 0 853
c0 470 3 857 7 860 3 4 249 7 545 7 l538 0 0 -175z m1000 151 c174 -57 266
-154 305 -318 19 -82 19 -231 -1 -318 -16 -74 -68 -169 -112 -211 l-28 -26 47
-51 c26 -28 60 -78 76 -109 l28 -58 5 -265 c3 -146 9 -272 14 -280 5 -8 18
-25 29 -37 l20 -23 -211 0 c-198 0 -213 1 -232 20 -11 11 -22 30 -25 42 -2 13
-6 129 -7 258 -4 329 -5 330 -233 330 l-135 0 0 -325 0 -325 -205 0 -205 0 0
861 0 860 408 -3 c359 -4 414 -6 462 -22z m1640 -151 l0 -175 -195 0 -195 0 0
-685 0 -685 -210 0 -210 0 0 685 0 685 -190 0 -190 0 0 175 0 175 595 0 595 0
0 -175z m616 -200 c56 -203 105 -363 108 -355 3 8 51 174 105 368 54 194 101
355 103 358 3 2 109 3 235 2 l230 -3 -233 -610 -233 -610 -1 -247 0 -248 -210
0 -210 0 0 248 0 249 -230 602 c-126 331 -230 606 -230 612 0 6 88 8 232 7
l231 -3 103 -370z m1411 -2529 c60 -29 123 -88 155 -148 l23 -43 0 -6030 0
-6030 -23 -47 c-33 -67 -104 -134 -169 -158 -54 -20 -62 -20 -6053 -20 l-5999
0 -54 20 c-73 27 -150 104 -177 177 l-20 54 2 6017 3 6017 23 43 c32 60 95
119 155 148 l52 24 6015 0 6015 0 52 -24z"/>
<path d="M4180 17841 l0 -211 143 0 c150 0 200 12 239 56 53 59 65 196 26 274
-37 72 -73 84 -255 89 l-153 3 0 -211z"/>
<path d="M5587 18043 c-4 -3 -7 -87 -7 -185 l0 -178 113 0 c97 0 119 3 157 23
61 30 91 85 91 167 1 95 -44 154 -132 171 -53 10 -213 12 -222 2z"/>
<path d="M9112 17672 c-29 -141 -52 -260 -52 -264 0 -5 50 -8 110 -8 61 0 110
3 110 8 0 19 -103 508 -109 514 -3 4 -30 -108 -59 -250z"/>
<path d="M6030 15988 c-156 -28 -232 -242 -217 -608 7 -156 23 -251 57 -327
51 -115 154 -171 261 -143 128 34 190 154 211 408 18 216 -7 433 -64 547 -50
100 -138 144 -248 123z"/>
<path d="M3050 15751 l0 -211 143 0 c117 0 149 4 183 19 74 33 111 120 101
231 -6 73 -29 112 -81 141 -37 21 -57 24 -193 27 l-153 4 0 -211z"/>
<path d="M4450 15775 l0 -187 123 3 c145 5 181 20 217 95 29 58 25 159 -7 201
-40 54 -74 66 -209 71 l-124 5 0 -188z"/>
<path d="M7330 15749 l0 -211 153 4 c179 4 209 15 249 96 31 63 33 181 3 231
-44 74 -92 90 -282 91 l-123 0 0 -211z"/>
<path d="M9947 15953 c-4 -3 -7 -87 -7 -185 l0 -178 113 0 c97 0 119 3 157 23
61 30 91 85 91 167 1 95 -44 154 -132 171 -53 10 -213 12 -222 2z"/>
<path d="M7750 12843 c-441 -31 -807 -113 -1200 -270 -983 -390 -1795 -1204
-2183 -2188 -190 -483 -271 -914 -271 -1445 0 -455 53 -792 191 -1215 312
-956 978 -1747 1883 -2238 310 -167 736 -315 1115 -386 341 -64 811 -81 1165
-41 1388 156 2597 1061 3148 2355 444 1043 409 2246 -95 3260 -615 1238 -1833
2061 -3203 2165 -123 9 -440 11 -550 3z m565 -734 c770 -68 1523 -450 2050
-1039 470 -526 739 -1149 806 -1863 15 -161 7 -518 -16 -682 -72 -526 -270
-1021 -578 -1447 l-70 -97 -126 119 c-252 238 -1555 1551 -1524 1536 42 -21
78 -20 131 4 56 25 87 89 79 159 -4 25 -103 381 -222 791 -239 825 -236 817
-338 885 -28 19 -75 39 -103 45 -33 7 -186 10 -435 8 -377 -3 -385 -3 -435
-26 -53 -24 -119 -85 -148 -137 -9 -16 -29 -69 -44 -118 l-27 -87 -640 640
-640 641 35 30 c149 129 497 328 740 424 488 193 969 262 1505 214z m-1313
-3041 c-45 -156 -73 -271 -72 -299 1 -113 123 -186 216 -128 48 30 66 66 125
252 29 92 55 167 59 167 3 0 50 -45 104 -99 l99 -99 -148 -1109 c-95 -709
-146 -1119 -141 -1138 4 -16 24 -46 45 -67 l39 -38 147 0 c132 0 151 2 182 21
18 11 40 34 49 51 10 19 54 337 130 936 62 499 115 910 116 914 2 5 26 -15 55
-44 l52 -53 106 -855 c73 -577 113 -866 124 -890 9 -19 31 -45 50 -57 31 -21
45 -23 176 -23 131 0 145 2 176 23 19 12 42 39 52 60 l19 38 -76 571 c-42 314
-75 572 -73 574 1 2 305 -299 675 -669 l672 -673 -82 -61 c-312 -230 -690
-409 -1073 -508 -559 -144 -1148 -135 -1705 27 -1200 350 -2083 1380 -2255
2633 -26 186 -31 547 -11 734 64 584 267 1114 595 1558 l63 86 791 -791 791
-791 -72 -253z m1628 128 c84 -264 159 -491 167 -505 9 -14 -67 57 -169 158
-154 152 -187 190 -191 218 -7 42 11 602 19 615 4 6 10 6 15 1 4 -4 76 -224
159 -487z"/>
<path d="M7905 11377 c-97 -26 -158 -67 -220 -150 -100 -132 -103 -311 -10
-452 62 -92 145 -146 259 -165 325 -57 570 298 402 584 -39 67 -124 140 -191
165 -74 28 -173 35 -240 18z"/>
<path d="M6631 3820 c-114 -24 -181 -86 -202 -188 -15 -75 1 -145 46 -206 29
-37 58 -56 176 -116 77 -39 149 -80 160 -91 27 -27 26 -92 -2 -117 -25 -24
-82 -34 -132 -23 -48 11 -63 25 -79 67 l-12 34 -89 0 -90 0 6 -45 c13 -90 57
-148 142 -187 43 -19 66 -23 160 -23 93 0 118 4 161 23 95 43 136 109 136 223
1 86 -27 148 -85 188 -23 16 -93 54 -156 85 -137 69 -161 91 -161 145 0 54 34
81 102 81 41 0 54 -5 79 -29 16 -16 29 -39 29 -50 0 -20 6 -21 90 -21 l90 0 0
38 c-1 82 -75 175 -160 201 -55 16 -157 22 -209 11z"/>
<path d="M7303 3816 c-149 -36 -229 -171 -240 -402 -9 -172 27 -313 102 -402
14 -17 52 -44 83 -59 50 -24 69 -28 147 -28 79 0 97 4 148 28 103 51 158 151
179 327 9 75 9 121 0 194 -25 204 -95 304 -239 341 -68 18 -109 18 -180 1z
m161 -167 c41 -32 64 -88 76 -183 12 -94 6 -193 -16 -272 -42 -156 -214 -153
-261 5 -12 39 -17 92 -17 176 0 150 18 219 69 264 44 39 107 43 149 10z"/>
<path d="M7787 3803 c-4 -3 -7 -199 -7 -435 l0 -428 95 0 95 0 0 165 0 165 79
0 c70 0 83 -3 108 -24 28 -24 28 -26 31 -153 2 -70 8 -134 14 -140 7 -9 40
-13 100 -13 85 0 88 1 78 19 -5 11 -10 70 -10 132 0 131 -12 181 -56 225 l-33
32 21 19 c11 10 30 36 41 58 30 58 31 191 0 257 -26 57 -86 103 -154 117 -54
12 -391 15 -402 4z m356 -173 c52 -41 53 -132 2 -180 -20 -19 -39 -24 -100
-28 l-75 -5 0 117 0 116 74 0 c59 0 78 -4 99 -20z"/>
<path d="M8447 3803 c-4 -3 -7 -199 -7 -435 l0 -428 95 0 95 0 0 165 0 165 79
0 c70 0 83 -3 108 -24 28 -24 28 -26 31 -153 2 -70 8 -134 14 -140 7 -9 40
-13 100 -13 85 0 88 1 78 19 -5 11 -10 70 -10 132 0 131 -12 181 -56 225 l-33
32 21 19 c11 10 30 36 41 58 30 58 31 191 0 257 -26 57 -86 103 -154 117 -54
12 -391 15 -402 4z m356 -173 c52 -41 53 -132 2 -180 -20 -19 -39 -24 -100
-28 l-75 -5 0 117 0 116 74 0 c59 0 78 -4 99 -20z"/>
<path d="M9070 3800 c0 -6 52 -145 115 -310 l115 -299 0 -126 0 -125 90 0 90
0 0 120 0 119 120 312 c66 171 120 313 120 316 0 2 -46 2 -102 1 l-102 -3 -60
-198 c-33 -109 -63 -194 -66 -190 -6 7 -73 223 -112 361 l-9 32 -99 0 c-62 0
-100 -4 -100 -10z"/>
<path d="M3752 2756 c-71 -18 -131 -61 -162 -116 -20 -37 -25 -59 -25 -120 0
-64 4 -82 28 -123 35 -60 81 -93 229 -168 126 -63 151 -88 146 -140 -5 -47
-45 -73 -113 -73 -65 0 -105 24 -120 72 l-9 32 -88 0 -88 0 0 -27 c0 -59 22
-108 68 -153 54 -52 98 -69 202 -77 208 -16 330 76 330 247 0 73 -22 131 -64
169 -15 14 -91 59 -169 100 -124 67 -144 81 -161 114 -15 32 -16 42 -6 68 16
38 37 49 98 49 59 0 97 -25 107 -70 l7 -30 89 0 89 0 0 26 c0 83 -59 168 -139
203 -64 27 -178 35 -249 17z"/>
<path d="M5990 2755 c-92 -26 -165 -99 -201 -200 -32 -91 -44 -229 -31 -339
14 -108 31 -162 73 -227 111 -173 405 -171 516 3 43 69 64 152 70 278 9 181
-25 317 -102 408 -62 74 -210 109 -325 77z m174 -175 c55 -49 71 -110 70 -270
0 -116 -4 -143 -23 -193 -27 -69 -64 -97 -129 -97 -36 0 -50 6 -77 33 -48 48
-65 116 -65 262 0 146 17 214 65 262 28 28 40 33 79 33 36 0 52 -6 80 -30z"/>
<path d="M7660 2755 c-105 -30 -168 -94 -211 -216 -20 -56 -23 -84 -24 -219 0
-133 3 -165 22 -225 31 -95 83 -162 158 -200 52 -27 68 -30 149 -30 74 0 101
5 143 24 88 39 162 142 179 249 l7 42 -90 0 -89 0 -12 -46 c-26 -95 -113 -145
-189 -108 -48 24 -78 78 -94 169 -13 75 -7 234 11 296 47 164 229 166 272 3
l12 -44 89 0 90 0 -7 43 c-9 57 -46 135 -85 180 -71 80 -212 115 -331 82z"/>
<path d="M9401 2760 c-114 -24 -181 -86 -202 -188 -15 -75 1 -145 46 -206 29
-37 58 -56 176 -116 77 -39 149 -80 160 -91 27 -27 26 -92 -2 -117 -25 -24
-82 -34 -132 -23 -48 11 -63 25 -79 67 l-12 34 -89 0 -90 0 6 -45 c13 -90 57
-148 142 -187 43 -19 66 -23 160 -23 93 0 118 4 161 23 95 43 136 109 136 223
1 86 -27 148 -85 188 -23 16 -93 54 -156 85 -137 69 -161 91 -161 145 0 54 34
81 102 81 41 0 54 -5 79 -29 16 -16 29 -39 29 -50 0 -20 6 -21 90 -21 l90 0 0
38 c-1 82 -75 175 -160 201 -55 16 -157 22 -209 11z"/>
<path d="M2030 2670 l0 -80 100 0 100 0 0 -355 0 -355 90 0 90 0 0 355 0 355
100 0 100 0 0 80 0 80 -290 0 -290 0 0 -80z"/>
<path d="M2640 2315 l0 -435 90 0 90 0 0 180 0 180 115 0 115 0 0 -180 0 -180
95 0 95 0 0 435 0 436 -92 -3 -93 -3 -3 -177 -2 -178 -115 0 -115 0 0 180 0
180 -90 0 -90 0 0 -435z"/>
<path d="M3310 2315 l0 -435 90 0 90 0 0 435 0 435 -90 0 -90 0 0 -435z"/>
<path d="M4440 2316 l0 -436 90 0 89 0 3 153 3 152 130 5 c108 4 137 9 172 27
107 57 156 198 119 343 -20 79 -56 126 -122 160 -47 24 -58 25 -266 28 l-218
4 0 -436z m395 251 c52 -45 50 -151 -4 -199 -29 -26 -37 -28 -121 -28 l-90 0
0 125 0 125 94 0 c84 0 98 -3 121 -23z"/>
<path d="M5107 2743 c-4 -3 -7 -199 -7 -435 l0 -428 95 0 95 0 0 165 0 165 79
0 c70 0 83 -3 108 -24 28 -24 28 -26 31 -153 2 -70 8 -134 14 -140 7 -9 40
-13 100 -13 85 0 88 1 78 19 -5 11 -10 70 -10 132 0 131 -12 181 -56 225 l-33
32 21 19 c11 10 30 36 41 58 30 58 31 191 0 257 -26 57 -86 103 -154 117 -54
12 -391 15 -402 4z m356 -173 c52 -41 53 -132 2 -180 -20 -19 -39 -24 -100
-28 l-75 -5 0 117 0 116 74 0 c59 0 78 -4 99 -20z"/>
<path d="M6610 2414 c0 -332 -3 -366 -34 -386 -16 -11 -80 -10 -111 2 l-26 10
3 -72 c3 -69 5 -74 32 -86 48 -23 140 -27 190 -8 54 21 101 71 115 123 7 23
11 177 11 396 l0 357 -90 0 -90 0 0 -336z"/>
<path d="M6860 2315 l0 -435 265 0 265 0 0 80 0 80 -175 0 -175 0 0 100 0 100
140 0 140 0 0 75 0 75 -140 0 -140 0 0 100 0 100 175 0 175 0 0 80 0 80 -265
0 -265 0 0 -435z"/>
<path d="M8100 2670 l0 -80 100 0 100 0 0 -355 0 -355 90 0 90 0 0 355 0 355
100 0 100 0 0 80 0 80 -290 0 -290 0 0 -80z"/>
<path d="M8940 2315 l0 -435 90 0 90 0 0 435 0 435 -90 0 -90 0 0 -435z"/>
<path d="M10070 2316 l0 -436 95 0 95 0 0 154 0 154 133 4 c142 4 167 11 221
65 94 92 101 310 13 410 -61 70 -94 77 -339 81 l-218 4 0 -436z m402 245 c28
-25 32 -34 32 -83 2 -105 -37 -138 -164 -138 l-80 0 0 125 0 125 90 0 c85 0
91 -2 122 -29z"/>
<path d="M10740 2316 l0 -436 90 0 90 0 0 165 0 165 83 0 c125 -1 137 -17 137
-187 0 -79 4 -123 12 -131 8 -8 46 -12 106 -12 85 0 92 1 78 16 -13 12 -16 40
-16 140 0 136 -11 178 -57 226 l-26 27 30 34 c78 88 68 283 -19 364 -53 50
-90 57 -305 61 l-203 4 0 -436z m350 259 c33 -17 55 -72 46 -116 -14 -71 -59
-99 -163 -99 l-53 0 0 115 0 115 70 0 c43 0 82 -6 100 -15z"/>
<path d="M11400 2315 l0 -435 90 0 90 0 0 435 0 435 -90 0 -90 0 0 -435z"/>
<path d="M11610 2745 c0 -6 184 -762 201 -827 l10 -38 122 0 122 0 103 428
c57 235 103 430 103 435 -1 6 -181 11 -181 5 0 -2 -33 -151 -74 -333 -58 -262
-75 -324 -81 -301 -4 16 -38 165 -75 330 l-67 301 -91 3 c-51 1 -92 0 -92 -3z"/>
<path d="M12476 2733 c-7 -26 -206 -843 -206 -849 0 -2 41 -3 92 -2 l92 3 20
95 21 95 106 3 105 3 18 -83 c9 -46 19 -91 22 -100 5 -15 18 -18 96 -18 l90 0
-7 38 c-3 20 -50 215 -103 432 l-98 395 -121 3 c-109 2 -122 1 -127 -15z m164
-355 c16 -76 30 -140 30 -143 0 -8 -128 -6 -133 3 -4 7 48 252 59 282 8 19 8
19 44 -142z"/>
<path d="M12930 2670 l0 -80 100 0 100 0 0 -355 0 -355 90 0 90 0 0 355 0 355
100 0 100 0 0 80 0 80 -290 0 -290 0 0 -80z"/>
<path d="M13540 2315 l0 -435 265 0 266 0 -3 78 -3 77 -172 3 -173 2 0 100 0
100 140 0 140 0 0 75 0 75 -140 0 -140 0 0 100 0 100 175 0 175 0 0 80 0 80
-265 0 -265 0 0 -435z"/>
</g>
</svg>
